<?xml version="1.0" encoding="UTF-8" standalone="no"?>
<svg width="500" height="300"><rect x="40" y="20" width="430" height="250" stroke="rgb(155,155,155)" fill="rgb(216,216,216)"></rect><rect x="40" y="69.99999999999999" width="430" height="200" fill="rgb(216,216,216)"></rect><rect x="40" y="20" width="430" height="49.999999999999986" fill="rgb(215,197,178)"></rect><g class="y-axis" transform="translate(40, 0)" fill="none" font-size="10" font-family="sans-serif" text-anchor="end"><path class="domain" stroke="rgb(155,155,155)" d="M0.5,270.5V20.5"></path><g class="tick" opacity="1" transform="translate(0,270.5)"><line stroke="currentColor" x2="0"></line><text fill="currentColor" x="-3" dy="0.32em">0</text><line class="y-grid-line" stroke="rgb(230,230,230)" x1="0" x2="430" y1="0" y2="0"></line></g><g class="tick" opacity="1" transform="translate(0,70.49999999999999)"><line stroke="currentColor" x2="0"></line><text fill="currentColor" x="-3" dy="0.32em">400</text><line class="y-grid-line" stroke="rgb(230,230,230)" x1="0" x2="430" y1="0" y2="0"></line></g></g><g class="x-axis" transform="translate(0,270)" fill="none" font-size="10" font-family="sans-serif" text-anchor="middle"><path class="domain" stroke="rgb(155,155,155)" d="M40.5,0.5H470.5"></path><g class="tick" opacity="1" transform="translate(169.64930555555554,0)"><line stroke="currentColor" y2="0"></line><text fill="currentColor" y="3" dy="0.71em">May</text><line class="grid-line" stroke="rgb(230,230,230)" x1="0" x2="0" y1="0" y2="-250"></line></g><g class="tick" opacity="1" transform="translate(321.1265782828283,0)"><line stroke="currentColor" y2="0"></line><text fill="currentColor" y="3" dy="0.71em">Jun</text><line class="grid-line" stroke="rgb(230,230,230)" x1="0" x2="0" y1="0" y2="-250"></line></g><g class="tick" opacity="1" transform="translate(467.7174873737374,0)"><line stroke="currentColor" y2="0"></line><text fill="currentColor" y="3" dy="0.71em">Jul</text><line class="grid-line" stroke="rgb(230,230,230)" x1="0" x2="0" y1="0" y2="-250"></line></g></g><path fill="none" stroke="rgb(180, 180, 180)" stroke-width="2" d="M186.591,266.5L225.75,260.5L255,259L323.409,251.5"></path><g><circle cx="186.5909090909091" cy="266.49999999999994" r="4" fill="rgb(123,123,123)" stroke="rgb(255,255,255)" stroke-width="1"></circle><circle cx="225.74968434343432" cy="260.5" r="4" fill="rgb(123,123,123)" stroke="rgb(255,255,255)" stroke-width="1"></circle><circle cx="255" cy="259" r="4" fill="rgb(123,123,123)" stroke="rgb(255,255,255)" stroke-width="1"></circle><circle cx="323.4090909090909" cy="251.5" r="4" fill="rgb(123,123,123)" stroke="rgb(255,255,255)" stroke-width="1"></circle></g></svg>
